HIERARCHY
ROOT Bone
{
	OFFSET 0.000000 0.000000 0.000000
	CHANNELS 6 Xposition Yposition Zposition Xrotation Yrotation Zrotation
	JOINT Bone.001
	{
		OFFSET -0.001784 -0.086483 0.004492
		CHANNELS 3 Xrotation Yrotation Zrotation
		JOINT Bone.002
		{
			OFFSET 0.000000 0.052750 0.572341
			CHANNELS 3 Xrotation Yrotation Zrotation
			JOINT Bone.003
			{
				OFFSET 0.000000 0.042200 0.448378
				CHANNELS 3 Xrotation Yrotation Zrotation
				End Site
				{
					OFFSET 0.000000 -0.332327 -0.263752
				}
			}
		}
		JOINT Bone.004
		{
			OFFSET 0.000000 0.052750 0.572341
			CHANNELS 3 Xrotation Yrotation Zrotation
			JOINT Bone.009
			{
				OFFSET 0.414090 0.000000 -0.113413
				CHANNELS 3 Xrotation Yrotation Zrotation
				JOINT Bone.010
				{
					OFFSET 0.087038 0.000000 -0.321777
					CHANNELS 3 Xrotation Yrotation Zrotation
					End Site
					{
						OFFSET 0.131876 -0.075239 -0.342626
					}
				}
			}
		}
		JOINT Bone.005
		{
			OFFSET 0.000000 0.052750 0.572341
			CHANNELS 3 Xrotation Yrotation Zrotation
			JOINT Bone.006
			{
				OFFSET -0.416727 0.000000 -0.108138
				CHANNELS 3 Xrotation Yrotation Zrotation
				JOINT Bone.007
				{
					OFFSET -0.063300 0.000000 -0.319139
					CHANNELS 3 Xrotation Yrotation Zrotation
					End Site
					{
						OFFSET -0.112133 -0.073991 -0.346209
					}
				}
			}
		}
	}
	JOINT Bone.008
	{
		OFFSET -0.001784 -0.086483 0.004492
		CHANNELS 3 Xrotation Yrotation Zrotation
		JOINT Bone.014
		{
			OFFSET 0.121326 0.000000 -0.079125
			CHANNELS 3 Xrotation Yrotation Zrotation
			JOINT Bone.015
			{
				OFFSET 0.134513 0.000000 -0.379802
				CHANNELS 3 Xrotation Yrotation Zrotation
				JOINT Bone.016
				{
					OFFSET 0.079125 0.103285 -0.352588
					CHANNELS 3 Xrotation Yrotation Zrotation
					End Site
					{
						OFFSET 0.064034 -0.315648 -0.047475
					}
				}
			}
		}
	}
	JOINT Bone.011
	{
		OFFSET -0.001784 -0.086483 0.004492
		CHANNELS 3 Xrotation Yrotation Zrotation
		JOINT Bone.012
		{
			OFFSET -0.126601 0.000000 -0.068575
			CHANNELS 3 Xrotation Yrotation Zrotation
			JOINT Bone.013
			{
				OFFSET -0.116051 0.000000 -0.377165
				CHANNELS 3 Xrotation Yrotation Zrotation
				JOINT Bone.017
				{
					OFFSET -0.063300 0.111013 -0.363216
					CHANNELS 3 Xrotation Yrotation Zrotation
					End Site
					{
						OFFSET -0.068796 -0.319734 -0.050113
					}
				}
			}
		}
	}
}
MOTION
Frames: 21
Frame Time: 0.041667
0.000000 0.000000 0.000000 -0.156127 5.957717 -0.200190 30.573074 -3.043050 4.220498 -0.000001 0.000000 0.000000 -10.339408 0.359256 0.358877 -0.062005 3.624729 14.213417 54.184458 5.460788 0.634451 -23.477894 1.430376 1.565417 -0.226148 4.558518 17.931499 -79.351478 1.663715 6.435295 -43.701528 2.072146 3.276432 0.000003 -0.000005 -0.000001 -67.393654 3.246197 6.701915 67.841004 0.899547 3.396260 -5.078843 -12.398549 -0.903191 -0.000000 0.000000 -0.000000 53.071895 -9.086498 -12.874173 10.893721 0.459620 0.096000 28.371026 0.988557 0.609981 
0.000000 0.000000 0.000000 -0.156127 5.957717 -0.200190 30.573074 -3.043050 4.220498 -0.000001 0.000000 0.000000 -10.339408 0.359256 0.358877 0.038547 2.898383 12.973570 51.385518 5.203401 0.987588 -24.342294 1.014491 1.430661 -0.134120 4.017741 17.001046 -76.628903 2.571368 5.960719 -43.389972 2.091996 3.367621 0.000003 -0.000005 -0.000001 -64.559283 2.996083 7.022563 66.367063 0.788128 3.010365 -3.990256 -12.400939 -0.612672 -0.000000 0.000000 -0.000000 50.277999 -9.380097 -12.914762 12.728554 0.995371 -0.209958 27.493752 0.608665 1.206340 
0.000000 0.000000 0.000000 -0.156127 5.957717 -0.200190 30.573074 -3.043050 4.220498 -0.000001 0.000000 0.000000 -10.339408 0.359256 0.358877 0.233194 0.897712 9.583211 43.424584 4.379750 1.919016 -26.703753 -0.108525 1.031596 0.071947 2.535055 14.468530 -68.773448 5.033424 4.366086 -42.543998 2.148410 3.614700 0.000003 -0.000005 -0.000001 -56.441955 2.371342 8.003506 62.316488 0.533655 1.937482 -1.019733 -12.380018 0.179785 -0.000000 0.000000 -0.000000 42.300058 -10.201925 -13.109694 17.822953 2.423550 -1.144627 25.118912 -0.474422 2.804367 
0.000000 0.000000 0.000000 -0.156127 5.957717 -0.200190 30.573074 -3.043050 4.220498 -0.000001 0.000000 0.000000 -10.339408 0.359256 0.358877 0.302828 -2.109433 4.518659 30.778813 2.824947 3.140996 -30.223379 -1.742120 0.354776 0.256502 0.318385 10.717568 -55.922495 8.465528 1.118624 -41.296765 2.238244 3.977527 0.000003 -0.000005 -0.000001 -43.388097 1.674863 9.734004 56.232736 0.295590 0.300973 3.391895 -12.274975 1.352360 -0.000000 0.000000 -0.000000 29.527413 -11.434409 -13.656093 25.615878 4.418528 -2.799870 21.642897 -2.204438 5.096119 
0.000000 0.000000 0.000000 -0.156127 5.957717 -0.200190 30.573074 -3.043050 4.220498 -0.000001 0.000000 0.000000 -10.339408 0.359256 0.358877 0.021882 -5.805513 -1.744480 14.208632 0.443888 4.176822 -34.557441 -3.677263 -0.608101 0.284537 -2.403967 6.131978 -38.396930 11.740282 -4.287304 -39.781866 2.357995 4.415681 0.000003 -0.000005 -0.000001 -26.048407 1.385037 12.187816 48.711806 0.243047 -1.740773 8.783313 -12.027109 2.769882 -0.000000 0.000000 -0.000000 12.613988 -12.819534 -14.777893 35.469374 6.565592 -5.233862 17.474689 -4.505978 7.759489 
0.000000 0.000000 0.000000 -0.156127 5.957717 -0.200190 30.573074 -3.043050 4.220498 -0.000001 0.000000 0.000000 -10.339408 0.359256 0.358877 -0.758253 -9.801269 -8.707034 -4.729888 -2.511457 4.474405 -39.342450 -5.701099 -1.827608 0.065107 -5.372797 1.102014 -17.718588 13.297237 -11.483439 -38.133530 2.501474 4.888969 0.000003 -0.000005 -0.000001 -6.081275 1.971831 14.969169 40.445194 0.494156 -3.972278 14.662019 -11.608638 4.283108 -0.000000 0.000000 -0.000000 -6.891280 -13.932893 -16.512252 46.531521 8.417013 -8.330595 13.022737 -7.235272 10.484875 
0.000000 0.000000 0.000000 -0.156127 5.957717 -0.200190 30.573074 -3.043050 4.220498 -0.000001 0.000000 0.000000 -10.339408 0.359256 0.358877 -2.041826 -13.672253 -15.824855 -23.720776 -5.403121 3.793828 -44.189008 -7.615769 -3.218031 -0.417772 -8.310832 -3.970611 3.015495 12.266332 -18.785547 -36.486242 2.658484 5.357976 0.000003 -0.000005 -0.000001 13.852579 3.472148 17.384971 32.193748 1.063240 -6.144721 20.517325 -11.040943 5.742144 -0.000000 0.000000 -0.000000 -26.491020 -14.417320 -18.536485 57.725460 9.640947 -11.742760 8.673670 -10.164518 13.007614 
0.000000 0.000000 0.000000 -0.156127 5.957717 -0.200190 30.573074 -3.043050 4.220498 -0.000001 0.000000 0.000000 -10.339408 0.359256 0.358877 -3.659102 -17.035011 -22.497016 -40.414407 -7.627444 2.445730 -48.685640 -9.259627 -4.636090 -1.093005 -10.950698 -8.669709 20.653536 9.387365 -24.432179 -34.974151 2.814525 5.784684 0.000003 -0.000005 -0.000001 31.136158 5.377501 18.961529 24.711128 1.846415 -8.031623 25.847299 -10.396668 7.016035 -0.000000 0.000000 -0.000000 -43.619309 -14.278676 -20.354491 67.903774 10.162493 -14.985966 4.776229 -12.999125 15.132076 
0.000000 0.000000 0.000000 -0.156127 5.957717 -0.200190 30.573074 -3.043050 4.220498 -0.000001 0.000000 0.000000 -10.339408 0.359256 0.358877 -5.291427 -19.613211 -28.075631 -53.190464 -9.005326 1.014264 -52.410757 -10.518957 -5.896074 -1.812748 -13.060699 -12.565819 33.596242 6.192640 -27.924660 -33.730537 2.951330 6.132693 0.000003 -0.000005 -0.000001 44.167189 7.075829 19.735287 18.672231 2.655907 -9.474767 30.182080 -9.785914 8.006182 -0.000000 0.000000 -0.000000 -56.606484 -13.828650 -21.660265 76.062394 10.167039 -17.617587 1.640143 -15.413083 16.735138 
0.000000 0.000000 0.000000 -0.156127 5.957717 -0.200190 30.573074 -3.043050 4.220498 -0.000001 0.000000 0.000000 -10.339408 0.359256 0.358877 -6.543413 -21.245443 -31.896615 -61.243410 -9.695546 -0.030885 -54.945491 -11.320803 -6.794060 -2.383268 -14.451236 -15.222226 41.500445 3.847477 -29.690303 -32.887678 3.048363 6.366970 0.000003 -0.000005 -0.000001 52.293298 8.204416 20.014737 14.656469 3.277794 -10.386459 33.088476 -9.334209 8.643907 -0.000000 0.000000 -0.000000 -64.728139 -13.405228 -22.411451 81.429905 9.969016 -19.339168 -0.450114 -17.082216 17.745429 
0.000000 0.000000 0.000000 -0.156127 5.957717 -0.200190 30.573074 -3.043050 4.220498 -0.000001 0.000000 0.000000 -10.339408 0.359256 0.358877 -7.032259 -21.820667 -33.310167 -64.075787 -9.902466 -0.420040 -55.880131 -11.604992 -7.133007 -2.609820 -14.954069 -16.203294 44.237421 2.974792 -30.227149 -32.577403 3.084962 6.452877 0.000003 -0.000005 -0.000001 55.136449 8.606450 20.074047 13.195882 3.519889 -10.707461 34.151257 -9.160790 8.871455 -0.000000 0.000000 -0.000000 -67.572571 -13.232748 -22.659067 83.366953 9.858550 -19.955347 -1.212598 -17.702168 18.101639 
0.000000 0.000000 0.000000 -0.156127 5.957717 -0.200190 30.573074 -3.043050 4.220498 -0.000001 0.000000 0.000000 -10.339408 0.359256 0.358877 -6.546261 -21.249547 -31.904234 -61.306180 -9.704385 -0.036245 -55.297061 -11.283243 -6.846912 -2.383809 -14.452955 -15.224179 41.471252 3.810909 -29.801638 -32.887678 3.048364 6.366968 0.000003 -0.000005 -0.000001 52.293291 8.204423 20.014737 14.668151 3.283865 -10.431680 33.088472 -9.334207 8.643907 -0.000000 0.000000 -0.000000 -64.805634 -13.404286 -22.443609 81.654604 9.933995 -19.387658 -0.391946 -17.094594 17.828209 
0.000000 0.000000 0.000000 -0.156127 5.957717 -0.200190 30.573074 -3.043050 4.220498 -0.000001 0.000000 0.000000 -10.339408 0.359256 0.358877 -5.299677 -19.627220 -28.099427 -53.393378 -9.038639 1.001797 -53.668133 -10.400094 -6.079841 -1.814202 -13.066310 -12.571537 33.504205 6.083397 -28.344185 -33.730537 2.951330 6.132698 0.000003 -0.000005 -0.000001 44.167189 7.075828 19.735285 18.712388 2.672407 -9.637404 30.182073 -9.785904 8.006181 -0.000000 0.000000 -0.000000 -56.862093 -13.836463 -21.777042 76.900888 10.059802 -17.807628 1.841490 -15.454193 17.027457 
0.000000 0.000000 0.000000 -0.156127 5.957717 -0.200190 30.573074 -3.043050 4.220498 -0.000001 0.000000 0.000000 -10.339408 0.359256 0.358877 -3.670418 -17.060110 -22.534315 -40.735801 -7.692173 2.442749 -51.179366 -9.067259 -4.982598 -1.094701 -10.960123 -8.677449 20.512745 9.251453 -25.322793 -34.974151 2.814520 5.784691 0.000003 -0.000005 -0.000001 31.136162 5.377501 18.961529 24.786342 1.863291 -8.355974 25.847294 -10.396664 7.016036 -0.000000 0.000000 -0.000000 -44.039694 -14.329341 -20.583038 69.660129 10.012168 -15.403081 5.156938 -13.071546 15.701980 
0.000000 0.000000 0.000000 -0.156127 5.957717 -0.200190 30.573074 -3.043050 4.220498 -0.000001 0.000000 0.000000 -10.339408 0.359256 0.358877 -2.051511 -13.704250 -15.864450 -24.022088 -5.481121 3.827176 -48.015267 -7.396423 -3.709943 -0.418723 -8.321873 -3.975981 2.874853 12.252595 -20.230814 -36.486246 2.658498 5.357979 0.000003 -0.000005 -0.000001 13.852586 3.472151 17.384971 32.301775 1.058705 -6.643373 20.517328 -11.040943 5.742143 -0.000000 0.000000 -0.000000 -26.916881 -14.557863 -18.857667 60.564203 9.545350 -12.429727 9.225262 -10.258888 13.866204 
0.000000 0.000000 0.000000 -0.156127 5.957717 -0.200190 30.573074 -3.043050 4.220498 -0.000001 0.000000 0.000000 -10.339408 0.359256 0.358877 -0.763061 -9.831930 -8.735036 -4.808806 -2.557398 4.548859 -44.350085 -5.512946 -2.405210 0.065311 -5.382129 1.103940 -17.843179 13.604110 -13.388407 -38.133520 2.501475 4.888961 0.000003 -0.000005 -0.000001 -6.081274 1.971836 14.969172 40.577997 0.444207 -4.621936 14.662022 -11.608636 4.283111 -0.000000 0.000000 -0.000000 -7.068564 -14.181616 -16.857911 50.389116 8.500131 -9.240908 13.701722 -7.335057 11.589563 
0.000000 0.000000 0.000000 -0.156127 5.957717 -0.200190 30.573074 -3.043050 4.220498 -0.000001 0.000000 0.000000 -10.339408 0.359256 0.358877 0.021635 -5.826596 -1.750840 14.483187 0.462642 4.256139 -40.342328 -3.562255 -1.188367 0.285363 -2.408737 6.144254 -38.558959 12.456746 -6.357560 -39.781863 2.357996 4.415685 0.000003 -0.000005 -0.000001 -26.048397 1.385038 12.187822 48.858177 0.134985 -2.482282 8.783313 -12.027109 2.769877 -0.000000 0.000000 -0.000000 12.859209 -13.136716 -15.077924 40.007478 6.897637 -6.228424 18.213598 -4.593905 9.017243 
0.000000 0.000000 0.000000 -0.156127 5.957717 -0.200190 30.573074 -3.043050 4.220498 -0.000001 0.000000 0.000000 -10.339408 0.359256 0.358877 0.304249 -2.117155 4.535339 31.358474 2.893072 3.184202 -36.132780 -1.709317 -0.147735 0.256963 0.319078 10.739342 -56.155404 9.463447 -0.780629 -41.296765 2.238244 3.977527 0.000003 -0.000005 -0.000001 -43.388104 1.674863 9.734006 56.378362 0.139604 -0.443122 3.391890 -12.274970 1.352368 -0.000000 0.000000 -0.000000 30.142509 -11.751341 -13.882874 30.257198 4.955023 -3.705831 22.358792 -2.268737 6.366236 
0.000000 0.000000 0.000000 -0.156127 5.957717 -0.200190 30.573074 -3.043050 4.220498 -0.000001 0.000000 0.000000 -10.339408 0.359256 0.358877 0.233690 0.900620 9.613654 44.097808 4.455585 1.921142 -31.845726 -0.133686 0.664116 0.071507 2.539506 14.493994 -69.028508 6.031843 2.888741 -42.544002 2.148411 3.614702 0.000003 -0.000005 -0.000001 -56.441955 2.371340 8.003506 62.442129 0.366978 1.302392 -1.019733 -12.380014 0.179784 -0.000000 0.000000 -0.000000 43.036254 -10.460196 -13.265190 21.826792 3.008600 -1.825181 25.716446 -0.512606 3.900324 
0.000000 0.000000 0.000000 -0.156127 5.957717 -0.200190 30.573074 -3.043050 4.220498 -0.000001 0.000000 0.000000 -10.339408 0.359256 0.358877 0.037971 2.904140 12.999445 51.865861 5.252686 0.974151 -27.592880 0.976792 1.230243 -0.134929 4.022131 17.019896 -76.810115 3.239580 5.100596 -43.389962 2.091998 3.367621 0.000003 -0.000005 -0.000001 -64.559283 2.996083 7.022563 66.446662 0.670253 2.614959 -3.990261 -12.400933 -0.612666 -0.000000 0.000000 -0.000000 50.807110 -9.533872 -12.999974 15.233895 1.408643 -0.584495 27.861479 0.591375 1.895653 
0.000000 0.000000 0.000000 -0.156127 5.957717 -0.200190 30.573074 -3.043050 4.220498 -0.000001 0.000000 0.000000 -10.339408 0.359256 0.358877 -0.062005 3.624729 14.213417 54.184458 5.460788 0.634451 -23.477894 1.430376 1.565417 -0.226148 4.558518 17.931499 -79.351478 1.663715 6.435295 -43.701528 2.072146 3.276432 0.000003 -0.000005 -0.000001 -67.393654 3.246197 6.701915 67.841004 0.899547 3.396260 -5.078843 -12.398549 -0.903191 -0.000000 0.000000 -0.000000 53.071895 -9.086498 -12.874173 10.893721 0.459620 0.096000 28.371026 0.988557 0.609981 
